<svg xmlns="http://www.w3.org/2000/svg" xmlns:xlink="http://www.w3.org/1999/xlink" width="1040.092" height="320.067" viewBox="0 0 1040.092 320.067">
  <defs>
    <radialGradient id="radial-gradient" cx="0.5" cy="0.489" r="1.61" gradientTransform="translate(0.387 0.41) scale(0.225 0.18)" gradientUnits="objectBoundingBox">
      <stop offset="0.08" stop-color="#a6a5a5"/>
      <stop offset="0.11" stop-color="#a6a5a5" stop-opacity="0.949"/>
      <stop offset="0.34" stop-color="#a6a5a5" stop-opacity="0.612"/>
      <stop offset="0.55" stop-color="#a6a5a5" stop-opacity="0.349"/>
      <stop offset="0.73" stop-color="#a6a5a5" stop-opacity="0.161"/>
      <stop offset="0.89" stop-color="#a6a5a5" stop-opacity="0.039"/>
      <stop offset="1" stop-color="#a6a5a5" stop-opacity="0"/>
    </radialGradient>
  </defs>
  <g id="dukandar_final_logo" transform="translate(7.442 -32.993)">
    <g id="Layer_1" data-name="Layer 1" transform="translate(-7 33)">
      <text id="Online" transform="translate(876.88 102.993)" fill="#3a3a3a" font-size="41" font-family="Poppins-Medium, Poppins" font-weight="500" letter-spacing="0.03em"><tspan x="0" y="0">Online</tspan></text>
      <ellipse id="Ellipse_1" data-name="Ellipse 1" cx="126.36" cy="28.45" rx="126.36" ry="28.45" transform="translate(34.32 263.16)" fill="url(#radial-gradient)"/>
      <path id="Path_47" data-name="Path 47" d="M117.95,226.59l-49-126.56L10.88,97.65" fill="none" stroke="#3a3a3a" stroke-linecap="round" stroke-linejoin="round" stroke-width="21.77"/>
      <path id="Path_48" data-name="Path 48" d="M145.62,176.6v.09h.09Z" fill="#0c4d8a"/>
      <path id="Path_49" data-name="Path 49" d="M109.25,77.35a10.68,10.68,0,0,0-5,3.14,260,260,0,0,1,176.29,41.19c-.34-1.36-.7-2.71-1.1-4.08-7.59-26-23.2-44.54-44.11-54.12q-8.9-3.18-18-5.79c-15.72-3.11-33.47-2.11-52.46,3.43Z" fill="#bed530"/>
      <path id="Path_50" data-name="Path 50" d="M104.3,80.49a10.91,10.91,0,0,0-2.43,10.32l6.27,21.49a224.34,224.34,0,0,1,61.18.45l9.79-2.86c22.11-6.45,38.09,1.56,45.2,17.93a223.509,223.509,0,0,1,57.32,34.5c2.81-12.59,2.55-26.29-1-40.64A260,260,0,0,0,104.3,80.49Z" fill="#8cc540"/>
      <path id="Path_51" data-name="Path 51" d="M222.78,162.24a191.55,191.55,0,0,1,44.67,30.17,75.91,75.91,0,0,0,14.18-30.09,223.51,223.51,0,0,0-57.32-34.5,45.111,45.111,0,0,1,1.91,5.32C229.36,143.87,228.27,154,222.78,162.24Z" fill="#51b748"/>
      <path id="Path_52" data-name="Path 52" d="M175.88,146.36l-9.55-32.74,3-.87a224.341,224.341,0,0,0-61.18-.45l9.1,31.18a193.4,193.4,0,0,1,58.63,2.88Z" fill="#51b748"/>
      <path id="Path_53" data-name="Path 53" d="M199,178.07l-12.78,3.73-10.34-35.44a193.4,193.4,0,0,0-58.64-2.88l9.14,31.35a163,163,0,0,1,116.88,38.95,89.821,89.821,0,0,0,24.19-21.37,191.551,191.551,0,0,0-44.67-30.17C218.1,169.23,210.22,174.8,199,178.07Z" fill="#069f49"/>
      <path id="Path_54" data-name="Path 54" d="M169.57,210.58a129.64,129.64,0,0,1,39.52,17.47l4.14-1.21a123,123,0,0,0,30-13.06,163,163,0,0,0-116.88-38.95l9.25,31.71a130,130,0,0,1,33.97,4.04Z" fill="#51b748"/>
      <path id="Path_55" data-name="Path 55" d="M135.63,206.54l8.44,28.92a11,11,0,0,0,13.52,7.61l51.5-15a130.46,130.46,0,0,0-73.46-21.51Z" fill="#8cc540"/>
      <path id="Path_56" data-name="Path 56" d="M161,224.9h0c-10.24-2.59-21.72,4.17-24.43,14.36a19.93,19.93,0,0,0,14.28,24.15l.23.05c10.81,2.76,21.29-3.12,24.2-13.62A20.33,20.33,0,0,0,161,224.9Z" fill="#3a3a3a"/>
      <path id="Path_57" data-name="Path 57" d="M161,224.9a20.33,20.33,0,0,1,14.25,24.93c-2.91,10.5-13.39,16.38-24.2,13.62l-.23-.05a19.93,19.93,0,0,1-14.28-24.15c2.71-10.19,14.19-16.95,24.43-14.36h0m2.68-10.5h-.06c-16.1-4.07-33.3,6-37.56,22.1a30.73,30.73,0,0,0,22,37.39l.34.09c16.46,4.2,32.86-5.13,37.32-21.23a31.29,31.29,0,0,0-3.13-23.92,30.41,30.41,0,0,0-18.88-14.41Z" fill="#fff"/>
      <path id="Path_58" data-name="Path 58" d="M249.55,194.84h0c-10.23-2.59-21.71,4.16-24.42,14.36a19.91,19.91,0,0,0,14.28,24.14l.23.06c10.8,2.76,21.28-3.13,24.19-13.63A20.31,20.31,0,0,0,249.55,194.84Z" fill="#3a3a3a"/>
      <path id="Path_59" data-name="Path 59" d="M249.55,194.84a20.31,20.31,0,0,1,14.24,24.92c-2.91,10.5-13.39,16.38-24.19,13.63l-.23-.06a19.91,19.91,0,0,1-14.28-24.14c2.71-10.2,14.19-16.95,24.42-14.36h0m2.68-10.51h-.05c-16.1-4.07-33.3,6.05-37.56,22.1a30.74,30.74,0,0,0,22,37.4l.34.08c16.46,4.2,32.86-5.12,37.32-21.23a31.29,31.29,0,0,0-3.13-23.92,30.44,30.44,0,0,0-18.88-14.41Z" fill="#fff"/>
      <text id="Order_online_from_Near_by_Store." data-name="Order online from Near by Store." transform="translate(297.65 251.62)" fill="#3a3a3a" font-size="43.46" font-family="Poppins-Medium, Poppins" font-weight="500" letter-spacing="0.03em"><tspan x="0" y="0">Order online from Near by Store.</tspan></text>
      <path id="Path_60" data-name="Path 60" d="M272.56,100C264,83.09,251.2,70.73,235.38,63.48q-8.9-3.18-18-5.79A92.471,92.471,0,0,0,202,56a44.39,44.39,0,0,0,70.61,44Z" fill="#3a3a3a" opacity="0.15"/>
      <path id="Path_61" data-name="Path 61" d="M245.46,88.7a23.9,23.9,0,1,1,19.81-10.52A23.9,23.9,0,0,1,245.46,88.7Z" fill="#fff"/>
      <circle id="Ellipse_2" data-name="Ellipse 2" cx="11.09" cy="11.09" r="11.09" transform="translate(234.38 53.71)" fill="#e95d24"/>
      <path id="Path_62" data-name="Path 62" d="M308.93,52.44a64.29,64.29,0,0,0-27.32-41.33h0A64.31,64.31,0,0,0,233.07,1.2a7.06,7.06,0,0,0-5.64,8.35,7.06,7.06,0,0,0,8.35,5.65,49.85,49.85,0,0,1,37.87,7.69h0a49.83,49.83,0,0,1,21.28,32.26,7.13,7.13,0,1,0,14-2.71Z" fill="#e95d24"/>
      <path id="Path_63" data-name="Path 63" d="M238.11,27.6a7.156,7.156,0,1,0,2.72,14.05A23.7,23.7,0,0,1,268.62,60.3a7.13,7.13,0,1,0,14-2.71A38,38,0,0,0,238.11,27.6Z" fill="#f47a4e"/>
      <path id="Path_64" data-name="Path 64" d="M386.47,106.62a6.56,6.56,0,0,1,6.58,6.58v79.5a6.56,6.56,0,0,1-6.58,6.58H361.79a4.92,4.92,0,0,1-4.93-4.94v-4.57c-5.3,6.58-13.16,11.7-25.22,11.7-28,0-34-23.39-34-36.92V113.2a6.4,6.4,0,0,1,6.4-6.58h23.21a6.56,6.56,0,0,1,6.58,6.58v40c0,7.31,3.28,12.79,11.51,12.79,8,0,11.51-5.48,11.51-12.79v-40a6.56,6.56,0,0,1,6.58-6.58Z" fill="#e95d24"/>
      <path id="Path_65" data-name="Path 65" d="M498.31,199.28h-28a7.92,7.92,0,0,1-7.13-4.39l-17.54-33.26V192.7a6.56,6.56,0,0,1-6.58,6.58H415.89a6.52,6.52,0,0,1-6.4-6.58V73.93a6.52,6.52,0,0,1,6.4-6.58H439.1a6.55,6.55,0,0,1,6.58,6.58v66.68l16.63-29.79a8.31,8.31,0,0,1,7.13-4.2h26.13a4.92,4.92,0,0,1,4.2,7.49l-22.11,35.82,24.67,42a4.8,4.8,0,0,1-4.02,7.35Z" fill="#e95d24"/>
      <path id="Path_66" data-name="Path 66" d="M578.54,106.62h24.67a6.56,6.56,0,0,1,6.58,6.58v79.5a6.56,6.56,0,0,1-6.58,6.58H578.54a4.93,4.93,0,0,1-4.94-4.94v-2.19c-5.66,5.66-13.52,9.32-24.12,9.32-28.87,0-42.76-24.13-42.76-48.43,0-24.49,13.89-48.61,42.76-48.61,10.24,0,18.09,3.47,24.12,8.95v-1.82a4.93,4.93,0,0,1,4.94-4.94ZM572.69,153c0-8.77-5.85-15-15-15s-15,6.22-15,15c0,8.59,5.85,14.8,15,14.8S572.69,161.63,572.69,153Z" fill="#e95d24"/>
      <path id="Path_67" data-name="Path 67" d="M721.81,141.34V192.7a6.55,6.55,0,0,1-6.57,6.58H692a6.52,6.52,0,0,1-6.4-6.58v-40c0-7.31-3.47-12.79-11.51-12.79-8.23,0-11.7,5.48-11.7,12.79v40a6.52,6.52,0,0,1-6.39,6.58H632.82a6.55,6.55,0,0,1-6.58-6.58V113.2a6.55,6.55,0,0,1,6.58-6.58h24.85a4.88,4.88,0,0,1,4.75,4.94v4.56c5.3-6.57,13.34-11.69,25.4-11.69C715.6,104.43,721.81,127.82,721.81,141.34Z" fill="#e95d24"/>
      <path id="Path_68" data-name="Path 68" d="M807,67.35h23.2a6.55,6.55,0,0,1,6.58,6.58V192.7a6.55,6.55,0,0,1-6.58,6.58H805.33a4.92,4.92,0,0,1-4.93-4.94v-2.19c-5.67,5.66-13.53,9.32-23.94,9.32-28.88,0-43-24.13-43-48.43,0-24.49,14.07-48.61,43-48.61,10.23,0,18.09,3.47,23.94,8.95V73.93a6.55,6.55,0,0,1,6.6-6.58ZM799.48,153c0-8.77-5.84-15-15-15-9,0-14.8,6.22-14.8,15,0,8.59,5.84,14.8,14.8,14.8C793.64,167.84,799.48,161.63,799.48,153Z" fill="#91c33e"/>
      <path id="Path_69" data-name="Path 69" d="M920.46,106.62h24.68a6.55,6.55,0,0,1,6.57,6.58v79.5a6.55,6.55,0,0,1-6.57,6.58H920.46a4.92,4.92,0,0,1-4.93-4.94v-2.19c-5.66,5.66-13.52,9.32-24.12,9.32-28.88,0-42.77-24.13-42.77-48.43,0-24.49,13.89-48.61,42.77-48.61,10.23,0,18.09,3.47,24.12,8.95v-1.82a4.92,4.92,0,0,1,4.93-4.94ZM914.62,153c0-8.77-5.85-15-15-15s-15,6.22-15,15c0,8.59,5.84,14.8,15,14.8S914.62,161.63,914.62,153Z" fill="#91c33e"/>
      <path id="Path_70" data-name="Path 70" d="M1026.09,105a5,5,0,0,1,6,4.75v27.59a4.92,4.92,0,0,1-5.48,4.76c-21.93-1.65-22.29,13-22.29,23.93V192.7a6.52,6.52,0,0,1-6.4,6.58H974.74a6.56,6.56,0,0,1-6.58-6.58V113.2a6.56,6.56,0,0,1,6.58-6.58H998a6.52,6.52,0,0,1,6.4,6.58v7.86C1009.46,112.65,1017.5,106.81,1026.09,105Z" fill="#91c33e"/>
      <path id="Path_71" data-name="Path 71" d="M955.35,6.22c-13.79,0-25,11.86-25,26.44,0,18.09,22.37,44.65,23.32,45.77a2.16,2.16,0,0,0,3.35,0c1-1.12,23.33-27.68,23.33-45.77C980.35,18.08,969.13,6.22,955.35,6.22Zm0,39.74c-6.94,0-12.58-6-12.58-13.3s5.64-13.3,12.58-13.3,12.57,6,12.57,13.3S962.28,46,955.35,46Z" fill="#e95d24"/>
      <path id="Path_72" data-name="Path 72" d="M955.35,6.3c-13.75,0-24.93,11.82-24.93,26.36S941.6,59,955.35,59s24.93-11.83,24.93-26.37S969.09,6.3,955.35,6.3Zm0,39.66c-6.94,0-12.58-6-12.58-13.3s5.64-13.3,12.58-13.3,12.57,6,12.57,13.3S962.28,46,955.35,46Z" fill="#fff" opacity="0.3"/>
      <g id="Group_2" data-name="Group 2" opacity="0.15">
        <path id="Path_73" data-name="Path 73" d="M715.57,118.34c-5-7.79-13.54-13.91-27.75-13.91-12.06,0-20.1,5.12-25.4,11.69v-4.56a4.88,4.88,0,0,0-4.75-4.94H632.82a6.55,6.55,0,0,0-6.58,6.58v20.67a37.89,37.89,0,0,0,27.17-16.56,37.81,37.81,0,0,0,62.16,1Z" fill="#3a3a3a"/>
        <path id="Path_74" data-name="Path 74" d="M603.21,106.62H578.54a4.93,4.93,0,0,0-4.94,4.94v1.82c-6-5.48-13.88-8.95-24.12-8.95-20,0-32.79,11.56-38.78,26.8a38,38,0,0,0,17-13.92,37.82,37.82,0,0,0,62.88,0,38,38,0,0,0,19.25,14.78V113.2a6.56,6.56,0,0,0-6.62-6.58Z" fill="#3a3a3a"/>
        <path id="Path_75" data-name="Path 75" d="M462.31,110.82l-.56,1A38,38,0,0,0,488,133.2l11.78-19.09a4.92,4.92,0,0,0-4.2-7.49H469.44a8.31,8.31,0,0,0-7.13,4.2Z" fill="#3a3a3a"/>
        <path id="Path_76" data-name="Path 76" d="M945.14,106.62H920.46a4.92,4.92,0,0,0-4.93,4.94v1.82c-6-5.43-13.75-8.88-23.84-8.94a196.629,196.629,0,0,0,12.93,16,38.63,38.63,0,0,0,28.72,12.82h0a38.64,38.64,0,0,0,18.36-4.7V113.2a6.55,6.55,0,0,0-6.56-6.58Z" fill="#3a3a3a"/>
        <path id="Path_77" data-name="Path 77" d="M737,132.57a37.85,37.85,0,0,0,47.46-27.35,40.049,40.049,0,0,0-8-.79C755.89,104.43,742.84,116.67,737,132.57Z" fill="#7ea63f"/>
      </g>
      <path id="Path_78" data-name="Path 78" d="M565.42,18.51c-12.58,18.83-25.17,28.83-37.75,47.67h0a31.438,31.438,0,1,0,62.875,0h-.005c4.2-18.84,8.39-28.84,12.59-47.67Z" fill="#8cc540"/>
      <path id="Path_79" data-name="Path 79" d="M640.83,18.51h-37.7c-4.2,18.83-8.39,28.83-12.59,47.67h0a31.437,31.437,0,1,0,62.875,0h0C649.22,47.34,645,37.34,640.83,18.51Z" fill="#e95d24"/>
      <path id="Path_80" data-name="Path 80" d="M678.54,18.51H640.83c4.2,18.83,8.39,28.83,12.59,47.67h0a31.44,31.44,0,0,0,62.88,0h0C703.71,47.34,691.13,37.34,678.54,18.51Z" fill="#8cc540"/>
      <path id="Path_81" data-name="Path 81" d="M721.17,22.93a17.26,17.26,0,0,0-11.55-4.42H678.54c12.59,18.83,25.17,28.83,37.76,47.67h0a31.437,31.437,0,1,0,62.875,0h0C759.84,48.81,740.5,40.29,721.17,22.93Z" fill="#e95d24"/>
      <path id="Path_82" data-name="Path 82" d="M534.34,18.51a17.28,17.28,0,0,0-11.55,4.42c-19.33,17.36-38.66,25.88-58,43.25h0a31.438,31.438,0,1,0,62.875,0h-.005c12.58-18.84,25.17-28.84,37.75-47.67Z" fill="#e95d24"/>
      <g id="Group_3" data-name="Group 3" opacity="0.3">
        <path id="Path_83" data-name="Path 83" d="M565.42,18.51H534.34a17.28,17.28,0,0,0-11.55,4.42c-19.33,17.36-38.66,25.88-58,43.25h62.88C540.25,47.34,552.84,37.34,565.42,18.51Z" fill="#fff"/>
        <path id="Path_84" data-name="Path 84" d="M603.13,18.51H565.42c-12.58,18.83-25.17,28.83-37.75,47.67h62.87C594.74,47.34,598.93,37.34,603.13,18.51Z" fill="#bed530"/>
        <path id="Path_85" data-name="Path 85" d="M640.83,18.51h-37.7c-4.2,18.83-8.39,28.83-12.59,47.67h62.88C649.22,47.34,645,37.34,640.83,18.51Z" fill="#fff"/>
        <path id="Path_86" data-name="Path 86" d="M678.54,18.51H640.83c4.2,18.83,8.39,28.83,12.59,47.67H716.3C703.71,47.34,691.13,37.34,678.54,18.51Z" fill="#bed530"/>
        <path id="Path_87" data-name="Path 87" d="M709.62,18.51H678.54c12.59,18.83,25.17,28.83,37.76,47.67h62.87c-19.33-17.37-38.67-25.89-58-43.25a17.26,17.26,0,0,0-11.55-4.42Z" fill="#fff"/>
      </g>
      <path id="Path_92" data-name="Path 92" d="M944.17,74.25C944.19,78.14,944.16,72.54,944.17,74.25Z" fill="#555554"/>
    </g>
  </g>
</svg>
